Patient4_TMGait_0pt7_01_right_16_EMG.mot
version=1
nRows=40
nColumns=33
inDegrees=no
endheader
time	1LAddLong	2LGlutMax	3LGlutMed	4LIliopsoas	5LSemiMemb	6LBicFemLong	7LRecFem	8LVastMed	9LVastLat	10LGasMed	11LTibAnt	12lTibPost	13LPeroneusLong	14LSol	15LExtDigLong	16LFlexDigLong	17RAddLong	18RGlutMax	19RGlutMed	20RIliopsoas	21RSemiMemb	22RBicFemLong	23RRecFem	24RVastMed	25RVastLat	26RGasMed	27RTibAnt	28RTibPost	29RPeroneusLong	30RSol	31RExtDigLong	32RFlexDigLong
18.968	-0.010681	0.046082	-0.033112	0.014496	0.017395	-0.001068	0.18967	-0.033569	0.13718	-0.28671	0.001984	-0.013123	0.026703	-0.081787	0.02121	-0.013123	-0.02182	-0.16815	-0.13275	0.14725	-0.040894	0.015564	0.064087	-0.066833	0.019684	-0.021362	0.043488	-0.000305	0.066986	-0.051727	0.000153	0.009003
18.969	0.002747	0.036621	0.016632	0.019379	0.000153	0.011139	0.27344	-0.0354	0.13992	-0.29358	-0.009003	-0.005188	0.019379	-0.10666	0.017395	-0.017548	-0.007935	-0.20264	0.030365	0.13931	-0.057678	-0.014343	0.073853	-0.06897	0.026855	-0.024261	0.053711	-0.006561	0.021362	-0.080566	0.001526	-0.002289
18.97	-0.002441	0.010376	0.014648	0.025482	0.023651	-0.002747	0.14069	-0.012817	0.13138	-0.15778	-0.024109	-0.008545	0.051727	-0.091095	0.024261	-0.007324	-0.010223	-0.15152	-0.16281	0.074768	-0.054169	-0.02243	0.071259	-0.06546	0.024414	-0.02121	0.056763	-0.002899	-0.030518	-0.053558	0.003357	-0.011749
18.971	0.000916	0.026855	-0.006409	0.019684	0.009003	0.008392	0.055542	0.00473	0.068665	-0.088043	-0.037842	-0.005493	0.038757	-0.044708	0.011139	-0.030518	-0.014954	-0.094147	-0.26535	0.046692	-0.027466	-0.015869	0.12985	-0.06485	0.02655	-0.032349	0.06546	-0.004425	-0.19501	-0.049133	-0.000305	-0.009003
18.972	0.009613	0.011444	-0.036011	0.015564	0.011902	-0.017395	-0.01709	0.007172	0.072784	-0.059967	-0.016785	-0.001984	-0.012207	-0.005798	0.009155	-0.020905	-0.00885	-0.13092	-0.68481	0.040894	0.015259	-0.003204	0.22781	-0.066986	0.029449	-0.03952	0.048218	-0.002594	-0.24475	-0.092163	0.000458	0.002594
18.973	0.00412	0.041199	-0.033417	0.016632	0.004425	-0.028839	-0.041046	0.004883	0.072021	-0.060577	0.037079	-0.012665	-0.036316	0.009766	0.036316	-0.02243	0.005341	-0.1294	-0.84061	0.061188	-0.028534	-0.010681	0.1915	-0.12192	0.023804	-0.048218	-0.012207	-0.003204	-0.14908	-0.079651	0.000153	-0.003357
18.974	0.003204	0.04303	-0.055695	0.011139	0.014191	-0.026093	0.002899	-0.020294	0.14099	-0.005035	0.03479	-0.008392	-0.04837	0.059662	0.074158	0.001526	0.020447	-0.1059	-0.11887	-0.001678	-0.047302	-0.002747	0.19165	-0.2005	-0.003204	-0.056763	-0.031433	0.008087	-0.060577	-0.070648	0.001526	-0.008545
18.975	0.000763	0.044708	-0.047302	0.020599	0.006561	-0.001678	0.14969	-0.022278	0.11917	0.017242	-0.01358	0.003052	-0.012665	0.072021	0.14954	0.039673	0.037384	-0.057831	0.68436	-0.053101	-0.06012	0.011749	0.15091	-0.22476	-0.005341	-0.070496	-0.000305	-0.006256	0.11185	-0.066376	0.003204	-0.005646
18.976	-0.006714	0.015106	0.015717	0.012207	0.012665	0.021057	0.20004	-0.011139	0.078735	-0.013123	-0.1712	0.000916	0.017242	0.06012	0.15274	0.010986	0.019531	-0.12528	0.48416	-0.031433	-0.089722	-0.018158	0.093842	-0.24399	-0.007782	-0.097351	0.012817	-0.005341	0.27069	-0.061188	0.001526	-0.00473
18.977	-0.00473	0.058746	0.041809	0.015259	-0.002899	0.024109	0.24887	-0.010986	0.077515	-0.009766	-0.22049	0.001678	0.019226	0.035553	0.093689	-0.002136	-0.003967	-0.11902	0.5658	-0.024872	-0.06012	-0.016174	0.013275	-0.18768	-0.014648	-0.1355	0.029449	-0.007019	-0.036926	-0.062866	0.00412	-0.016785
18.978	-0.005798	0.0737	-0.007935	-0.002747	0.006714	0.007324	0.24704	-0.00473	0.052185	-0.019226	-0.16083	0.007324	0.072327	0.011749	-0.024109	-0.003815	-0.018005	-0.10941	-0.024414	-0.014954	-0.04425	0.021515	-0.14297	-0.20035	-0.003204	-0.19424	0.030518	-0.002594	-0.070953	-0.074768	0.001373	0.002747
18.979	-0.004272	0.089417	-0.079193	-0.002136	0.013885	0.018616	0.23361	-0.00061	0.053558	-0.048676	-0.063782	0.001221	0.12878	0.025635	-0.023499	-0.001526	-0.028229	-0.068817	-0.78537	-0.05188	-0.001984	0.01236	-0.27512	-0.15533	0.004272	-0.23056	0.002747	-0.000916	0.053864	-0.054626	-0.000916	0.000153
18.98	-0.002747	0.067596	0.008545	0.00351	-0.003052	0.005188	0.24063	0.003357	0.065765	-0.042572	0.21652	0.010376	-0.022888	0.02594	0.1033	0.00412	-0.016327	-0.039673	-0.41824	-0.049591	0.10483	-0.014038	-0.39841	-0.1149	0.025787	-0.18295	-0.007172	-0.00885	0.09613	-0.019531	0	0
18.981	-0.000153	0.06958	0.11337	0.023804	0.007172	0.010834	0.2095	-0.000153	0.09491	-0.03891	0.23621	0.013123	0.070648	0.051422	-0.059204	-0.007782	0.024261	-0.03479	0.076141	-0.024872	0.039215	-0.083923	-0.43869	-0.14069	0.015869	-0.00946	-0.00061	-0.008545	0.077209	-0.006104	-0.000458	0.00351
18.982	0.009308	0.01358	-0.010376	0.051727	0.013733	-0.00885	0.12894	-0.002289	0.1915	-0.001678	0.15442	0.002289	0.15289	0.03479	-0.32837	-0.002594	0.049438	-0.037994	0.48813	0.032654	-0.033875	-0.1088	-0.42694	-0.11658	0.045624	0.18478	0.028076	-0.002136	0.025787	-0.032196	-0.005951	0.00885
18.983	0.005951	0.040588	0.015259	0.012054	0.014038	-0.018463	0.10437	-0.002594	0.12634	0.006561	0.042419	-0.037079	-0.001984	0.004425	-0.27237	-0.014038	0.074005	0.000153	0.13596	0.065613	-0.027466	-0.12726	-0.43289	-0.16388	0.059204	0.30899	0.079651	-0.009308	-0.010529	-0.056458	0.000763	-0.00061
18.984	0.006866	0.031281	0.014496	0.003052	0.009308	-0.004578	0.13992	-0.004272	0.015717	0.001373	-0.12344	-0.092468	-0.16357	-0.031891	-0.14679	-0.00946	0.094299	0.028381	-0.33875	0.15015	0.005035	-0.12955	-0.39795	-0.14999	0.063477	0.42358	0.10239	-0.003204	-0.024567	-0.042725	-0.001373	0.00412
18.985	0.004272	0.039368	0.040588	0.018921	0.015411	-0.008087	0.19669	-0.002747	0.014648	0.022888	-0.074921	-0.081787	-0.28107	-0.078735	-0.049591	0.010223	0.097656	0.10147	-0.33249	0.10773	-0.048828	-0.046082	-0.39002	-0.11185	0.072632	0.48828	0.066833	-0.006866	-0.001678	-0.062714	-0.000153	0.013275
18.986	-0.005188	0.035248	0.036621	0.018616	0.010376	-0.000153	0.23697	-0.002289	0.034027	0.045319	0.013733	-0.073853	0.033875	-0.069885	-0.005188	-0.001221	0.060425	0.095215	-0.36102	0.056915	-0.010681	0.19959	-0.36835	-0.068512	0.09201	0.43976	-0.052643	-0.002899	0.021057	-0.051117	-0.017242	0.011139
18.987	0.000458	0.066376	0.050507	0.021057	0.003662	0.016174	0.25085	0.006866	0.0354	0.045471	0.14999	-0.061188	0.028992	-0.036469	0.002441	-0.008087	-0.021057	0.10574	-0.12619	0.074005	-0.14145	0.23804	-0.32623	0.026245	0.072784	0.26825	-0.17227	-0.00824	0.006409	-0.086365	-0.012665	-0.002594
18.988	-0.005188	0.086517	0.037079	0.016022	0.001526	0.007782	0.24475	0.00473	0.032654	0.038452	0.15625	-0.046997	-0.030975	-0.061951	0.10117	-1.5511	-0.041504	0.093842	-0.16357	0.059509	-0.36087	0.34286	-0.25726	0.000458	0.070648	0.11414	-0.18723	-0.006104	0.037994	-0.085907	-0.002136	-0.00061
18.989	-0.007935	0.091858	0.047302	0.000153	0.004883	-0.005035	0.22064	0.017853	0.025787	0.028992	-0.007629	-0.038452	-0.052185	-0.071411	0.3598	0.67368	-0.041351	0.10193	-0.46326	-0.015717	-0.12665	0.29373	-0.21942	0.10788	0.072327	0.032806	-0.007629	-0.012054	-0.042419	-0.093079	0.009003	0.005493
18.99	-0.005646	0.15839	0.05661	0.006866	0.007629	-0.007477	0.20264	0.009613	0.014038	0.019836	-0.056152	-0.028839	-0.089111	-0.067291	-0.077362	0.75348	-0.057678	0.06485	-0.54596	-0.22415	0.33752	0.2359	-0.20493	0.16739	0.082092	-0.022888	-0.035858	-0.010681	-0.2214	-0.047913	0.00061	0.003204
18.991	-0.006866	0.17975	0.054626	0.001373	0.013123	0.007172	0.22629	0.006866	0.024261	0.006256	-0.055847	-0.015717	0.007477	-0.069427	-0.10483	-0.31281	-0.055695	0.086517	-0.55542	-0.2623	0.14206	0.036926	-0.14969	0.12238	0.077667	-0.047913	-0.028381	-0.009003	-0.26764	-0.050964	-0.000305	0.008087
18.992	0.001831	0.22247	-0.014496	0.003204	-0.019684	0.010529	0.25818	0.024567	0.011139	0.029297	-0.031586	-0.010223	0.019989	-0.057373	-0.24918	-0.030823	-0.011902	0.085907	-0.48508	-0.12909	-0.036621	-0.13184	-0.099182	-0.00351	0.052643	-0.05188	-0.010529	-0.019836	-0.26642	-0.051422	0.003967	0.010529
18.993	-0.01236	0.30182	-0.0354	0.008087	-0.007172	0.002899	0.3891	0.005493	-0.010681	0.053253	0.008698	-0.008545	-0.011902	-0.03479	-0.14542	0.49881	-0.009766	0.075989	-0.21668	0.033112	-0.023651	-0.15518	-0.10757	-0.012817	0.036926	-0.057831	0.009155	-0.008087	-0.068817	-0.048676	0	0.00473
18.994	-0.007019	0.40863	-0.046387	0.007629	0.037079	-0.007629	0.46906	-0.00061	-0.007172	0.054321	0.027618	0.004272	-0.026093	-0.043945	-0.004272	0.11856	-0.055084	0.043182	0.29373	0.22247	0.14206	-0.090637	-0.10956	-0.016174	0.031738	-0.059967	0.000305	-0.011292	0.050964	-0.039978	-0.002136	0.001526
18.995	-0.004425	0.47516	-0.004883	0.016632	0.032959	0.01709	0.38406	0.00351	-0.031433	0.031128	0.013885	0.009155	-0.019379	-0.045776	0.015869	-0.16525	-0.046234	0.04715	0.55328	0.29144	0.16708	-0.065308	-0.092468	0.040436	0.064392	-0.060883	0.017853	-0.01236	0.067596	-0.029907	0.001373	0.001221
18.996	-0.003204	0.50797	-0.027771	0.024719	0.007935	0.030823	0.39475	0.00061	-0.05188	0.013733	-0.003815	0.017395	-0.02243	-0.10025	0.006256	-0.072784	-0.053864	-0.000916	-0.2179	0.22095	0.019684	-0.11932	-0.14465	0.06134	0.073242	-0.057068	0.000458	-0.00885	0.1471	-0.001068	0.001221	0.00412
18.997	0.001221	0.47516	-0.075836	0.033417	-0.005341	0.017548	0.28122	0.005188	-0.003357	0.023651	-0.019379	0.015717	-0.00885	-0.20371	0.04364	-0.001526	-0.058136	0.008087	-0.98297	0.092926	-0.055542	-0.13443	-0.18478	0.12924	0.10925	-0.061188	0.037231	-0.014191	0.11795	0.057068	0.002136	0.005798
18.998	0.007629	0.47089	-0.10452	0.026245	0.007782	-0.010223	0.21042	-0.014038	0.079956	0.015106	-0.050049	0.020294	0.034027	-0.23178	0.069427	-0.000458	-0.05661	0.020447	-0.98023	0.027618	-0.082703	-0.10452	-0.16739	0.077972	0.086823	-0.058289	0.035248	-0.01236	0.097656	0.038147	-0.00061	0.007324
18.999	0.000763	0.383	-0.002441	0.017242	0.039063	0.005341	0.17929	0.001373	0.097656	0.022888	-0.06073	0.026703	0.037842	-0.16785	0.02594	0.001373	-0.03479	0.053711	-0.2385	0.032196	0.14877	-0.052185	-0.1294	0.005798	0.047913	-0.052032	0.076141	-0.01297	0.049591	-0.004425	0.003815	0.006256
19	0.004883	0.30441	0.11749	0.005188	0.032043	-0.016174	0.2153	-0.008087	0.077362	0.039673	-0.036774	0.019379	0.009918	-0.12451	0.013733	0.01709	-0.064087	0.11581	0.1886	0.000916	0.17639	0.10941	-0.11581	0.046234	0.056915	-0.048065	0.039825	-0.01236	0.090485	-0.016022	-0.001373	0.007782
19.001	0.006104	0.19638	-0.017853	0	0.029144	-0.037842	0.26718	-0.023804	0.10925	0.043945	-0.006104	0.020447	-0.005035	-0.065613	0.055084	-0.011292	-0.063171	-0.002899	0.54077	-0.059052	0.010681	0.16861	-0.09613	0.023041	0.04715	-0.047913	-0.005951	-0.007477	0.14694	-0.004425	0	0.013123
19.002	0.00824	0.13245	-0.038147	0.005951	0.042419	-0.038147	0.26443	-0.020905	0.12924	0.028534	0.17716	0.023804	-0.047607	-0.030365	0.071716	0.048676	-0.046234	-0.066833	0.87708	-0.11963	0.011597	0.08194	-0.11871	0.045929	0.043945	-0.042114	0.033722	-0.010834	0.054474	0.004425	-0.001373	0.00473
19.003	-0.00061	0.080261	-0.002747	0.024719	0.031433	-0.005646	0.27908	-0.02594	0.16602	0.020905	0.27786	0.022583	-0.06073	-0.015869	0.099335	-0.003052	-0.015259	-0.079803	0.74616	-0.095062	-0.005035	-0.088806	-0.09079	0.019989	0.040894	-0.037231	0.049286	-0.006104	-0.031281	0.001984	0.002441	-0.000305
19.004	-0.007782	0.019836	0.029144	0.022278	0.015411	0.010376	0.3363	-0.024414	0.12375	0.011292	0.27451	0.021667	-0.055084	0.019836	0.12817	-0.38742	0.006866	-0.030212	0.16327	-0.07431	-0.063477	-0.11337	-0.066223	0.019531	0.063782	-0.036621	0.03006	-0.00885	-0.012665	-0.029297	-0.001984	0.00351
19.005	-0.008545	0.011139	0.001221	0.019531	0.018616	0.023193	0.37643	-0.017242	0.10483	-0.012512	-0.05661	0.025482	-0.002899	-0.000305	0.04715	0.077057	0.020294	-0.012817	-0.11795	-0.03418	0.074615	-0.040436	-0.0737	0.010223	0.059357	-0.028839	0.009003	-0.005646	-0.016327	-0.043945	0.001984	-0.007629
19.006	-0.007019	0.024567	-0.014038	0.013885	0.018158	-0.003967	0.36667	-0.00946	0.078278	-0.036163	-0.31586	0.023193	-0.00412	-0.016327	0.006714	0.065155	0.013123	-0.049438	-0.23895	0.009918	0.11688	0.029449	-0.066528	-0.027771	0.063171	-0.029297	-0.014191	-0.007782	-0.050507	-0.031281	0.003357	0
19.007	-0.007629	0.010071	-0.020599	0.016785	0.009155	0.00061	0.3537	-0.010681	0.091248	-0.066071	-0.23956	0.024414	-0.027313	-0.035706	-0.032349	0.011749	0.003662	0.013733	-0.10864	-0.023193	-0.062866	-0.025635	-0.079041	-0.039215	0.038452	-0.028076	0.003967	-0.007019	-0.056458	-0.048218	0.002136	-0.00412
